<svg width="512" height="512" viewBox="0 0 512 512" fill="none" xmlns="http://www.w3.org/2000/svg" xmlns:xlink="http://www.w3.org/1999/xlink" class=""><rect id="«r37»" width="512" height="512" x="0" y="0" rx="64" fill="#000000" stroke="#FFFFFF" stroke-width="0" stroke-opacity="100%" paint-order="stroke"></rect><clipPath id="clip"><use xlink:href="#«r37»"></use></clipPath><defs><linearGradient id="«r38»" gradientUnits="userSpaceOnUse" gradientTransform="rotate(135)" style="transform-origin: center center;"><stop stop-color="#000000"></stop><stop offset="1" stop-color="#F12711"></stop></linearGradient><radialGradient id="«r39»" cx="0" cy="0" r="1" gradientUnits="userSpaceOnUse" gradientTransform="translate(256) rotate(90) scale(512)"><stop stop-color="white"></stop><stop offset="1" stop-color="white" stop-opacity="0"></stop></radialGradient></defs><svg xmlns="http://www.w3.org/2000/svg" width="352" height="352" viewBox="0 0 24 24" x="80" y="80" alignment-baseline="middle" style="color: rgb(255, 105, 0);"><path fill="currentColor" fill-rule="evenodd" d="M1.75 6.5a4.75 4.75 0 0 1 9.5 0v2.731c0 .242.001.495-.06.722a1.75 1.75 0 0 1-1.237 1.237c-.227.061-.48.06-.722.06H6.5A4.75 4.75 0 0 1 1.75 6.5M6.5 3.25a3.25 3.25 0 1 0 0 6.5h2.667c.161 0 .258 0 .33-.003l.07-.006a.25.25 0 0 0 .174-.174l.006-.07a8 8 0 0 0 .003-.33V6.5A3.25 3.25 0 0 0 6.5 3.25m8.27 9.5h2.73a4.75 4.75 0 1 1-4.75 4.75v-2.731c0-.242-.001-.495.06-.722a1.75 1.75 0 0 1 1.237-1.237c.227-.061.48-.06.722-.06m-.337 1.51a.25.25 0 0 0-.174.173l-.005.07a8 8 0 0 0-.004.33V17.5a3.25 3.25 0 1 0 3.25-3.25h-2.667c-.162 0-.258 0-.33.004zm-4.936.001a8 8 0 0 0-.596-.011H6.5a3.25 3.25 0 1 0 3.25 3.25v-2.4c0-.292 0-.467-.011-.596a.6.6 0 0 0-.018-.12a.25.25 0 0 0-.104-.105a.6.6 0 0 0-.121-.018m.224.119v.002zm-.102-1.614c.213.018.446.057.676.175c.33.167.598.435.765.765c.118.23.158.463.175.676c.016.198.016.434.016.692V17.5a4.75 4.75 0 1 1-4.75-4.75h2.426c.258 0 .494 0 .692.016M12.75 6.5a4.75 4.75 0 1 1 4.75 4.75h-2.885c-.104 0-.212 0-.31-.011a1.75 1.75 0 0 1-1.544-1.543a3 3 0 0 1-.011-.311zm4.75-3.25a3.25 3.25 0 0 0-3.25 3.25v2.999l.002.03a.25.25 0 0 0 .25.22l.14.001H17.5a3.25 3.25 0 0 0 0-6.5" clip-rule="evenodd"></path></svg></svg>